<?xml version="1.0" standalone="no"?>
<!DOCTYPE svg PUBLIC "-//W3C//DTD SVG 20010904//EN"
 "http://www.w3.org/TR/2001/REC-SVG-20010904/DTD/svg10.dtd">
<svg version="1.0" xmlns="http://www.w3.org/2000/svg"
 width="1493.000000pt" height="1493.000000pt" viewBox="0 0 1493.000000 1493.000000"
 preserveAspectRatio="xMidYMid meet">
<metadata>
Created by potrace 1.11, written by Peter Selinger 2001-2013
</metadata>
<g transform="translate(0.000000,1493.000000) scale(0.100000,-0.100000)"
fill="#000000" stroke="none">
<path d="M7759 14636 c-2 -2 -140 -6 -307 -9 -167 -2 -306 -7 -309 -10 -3 -4
-15 -2 -26 4 -11 7 -17 7 -13 1 3 -5 -8 -10 -27 -10 -30 1 -123 -7 -212 -17
-22 -2 -69 -7 -105 -10 -59 -6 -85 -9 -145 -19 -11 -2 -49 -7 -85 -11 -36 -5
-67 -9 -70 -10 -5 -1 -79 -14 -120 -21 -14 -2 -35 -6 -46 -8 -12 -2 -37 -7
-55 -10 -19 -3 -87 -17 -152 -31 -65 -14 -123 -23 -128 -20 -5 4 -9 2 -9 -3 0
-9 -105 -36 -140 -37 -8 0 -17 -3 -20 -6 -4 -4 -192 -57 -232 -65 -5 -1 -9 -2
-10 -4 -2 -1 -10 -3 -18 -5 -24 -5 -115 -34 -255 -82 -71 -25 -134 -46 -140
-48 -12 -2 -19 -5 -140 -52 -128 -50 -125 -49 -177 -72 -26 -12 -50 -21 -52
-21 -2 0 -25 -10 -52 -22 -27 -12 -51 -23 -54 -23 -9 -3 -124 -56 -205 -96
-45 -21 -86 -39 -92 -39 -6 0 -13 -4 -15 -8 -6 -15 -169 -93 -180 -86 -6 4 -8
3 -5 -3 4 -6 -14 -22 -41 -36 -177 -93 -582 -348 -742 -467 -14 -10 -50 -37
-80 -59 -73 -53 -96 -72 -211 -163 -53 -42 -100 -74 -104 -70 -4 4 -5 2 -3 -4
2 -6 -31 -39 -72 -74 -131 -109 -250 -220 -425 -396 -171 -171 -213 -215 -297
-311 -26 -28 -49 -49 -53 -45 -4 4 -5 2 -3 -4 3 -12 -54 -84 -119 -151 -17
-18 -30 -33 -27 -33 2 0 -36 -51 -84 -112 -49 -62 -100 -130 -113 -150 -14
-21 -29 -35 -33 -30 -4 4 -6 2 -4 -3 3 -10 -110 -177 -124 -183 -4 -2 -8 -8
-8 -13 0 -5 -24 -44 -53 -87 -29 -42 -70 -105 -91 -139 -20 -35 -42 -63 -47
-63 -6 0 -8 -4 -5 -9 3 -5 -3 -20 -14 -34 -11 -14 -20 -27 -20 -30 0 -7 -82
-150 -89 -157 -6 -5 -27 -44 -108 -203 -27 -52 -49 -85 -55 -81 -7 4 -8 2 -4
-5 4 -6 -6 -40 -23 -76 -17 -36 -31 -69 -31 -74 0 -5 -3 -11 -8 -13 -4 -2 -29
-52 -56 -113 -27 -60 -52 -112 -55 -115 -3 -3 -8 -14 -10 -25 -1 -11 -8 -29
-14 -40 -6 -11 -12 -25 -13 -32 -1 -7 -9 -27 -18 -44 -9 -18 -16 -35 -16 -39
0 -4 -8 -25 -17 -46 -9 -22 -17 -41 -18 -44 -2 -7 -15 -41 -25 -65 -4 -11 -13
-36 -20 -55 -7 -19 -16 -44 -20 -55 -5 -11 -26 -72 -46 -135 -21 -63 -40 -117
-43 -120 -3 -3 -7 -18 -9 -35 -2 -16 -10 -50 -19 -75 -12 -37 -44 -151 -58
-210 -27 -109 -51 -196 -55 -200 -3 -3 -5 -15 -4 -27 1 -13 -1 -23 -5 -23 -3
0 -7 -10 -7 -22 -2 -41 -16 -113 -23 -118 -3 -3 -7 -14 -8 -25 -3 -29 -11 -82
-23 -145 -6 -30 -12 -71 -15 -90 -2 -19 -9 -62 -14 -95 -6 -33 -13 -80 -16
-105 -3 -25 -8 -63 -11 -85 -3 -22 -6 -47 -8 -55 -1 -8 -6 -21 -10 -29 -7 -10
-6 -12 4 -6 9 5 11 4 6 -4 -4 -6 -8 -29 -8 -51 0 -22 -3 -38 -7 -36 -3 2 -6
-22 -5 -55 0 -36 -4 -59 -10 -59 -6 0 -4 -5 4 -10 8 -5 11 -10 5 -10 -9 0 -13
-54 -16 -222 -1 -41 -5 -65 -11 -62 -6 4 -4 -4 2 -17 9 -16 10 -24 2 -27 -7
-2 -8 -11 -2 -27 5 -12 6 -25 3 -28 -7 -7 -5 -309 3 -492 3 -82 7 -183 8 -222
0 -40 3 -73 6 -73 3 0 7 -14 8 -31 2 -22 -1 -28 -10 -23 -10 6 -10 5 -2 -7 13
-16 24 -88 29 -182 2 -34 6 -70 10 -79 4 -10 5 -24 2 -32 -3 -7 0 -19 6 -25 8
-8 7 -11 -3 -11 -12 0 -12 -2 -2 -9 9 -5 14 -32 15 -74 1 -35 5 -63 9 -61 4 3
7 -4 8 -13 2 -62 6 -93 11 -93 3 0 6 -6 7 -12 6 -66 10 -97 14 -104 3 -5 9
-27 13 -49 4 -22 9 -51 12 -65 3 -14 6 -35 6 -47 1 -13 4 -23 7 -23 4 0 7 -6
7 -12 2 -29 14 -87 31 -148 10 -36 18 -72 17 -80 0 -8 2 -17 6 -20 4 -3 9 -18
12 -35 7 -39 32 -130 50 -180 8 -22 13 -50 12 -62 -1 -12 2 -20 7 -17 4 3 8
-4 8 -16 0 -12 6 -33 13 -48 7 -15 13 -34 12 -42 0 -8 3 -18 9 -21 5 -4 9 -20
10 -37 0 -17 4 -28 9 -25 6 4 11 -21 10 -54 -1 -7 3 -11 7 -8 6 3 17 -24 35
-85 1 -3 7 -18 13 -33 7 -16 12 -33 12 -38 0 -6 7 -24 16 -41 13 -25 14 -32 2
-39 -10 -7 -9 -9 6 -9 12 0 16 -5 12 -16 -3 -8 -2 -12 4 -9 9 6 14 -17 13 -53
-1 -7 2 -11 5 -8 7 8 43 -74 37 -84 -3 -4 2 -10 10 -14 8 -3 15 -13 15 -22 0
-9 6 -28 14 -42 43 -82 107 -242 101 -251 -3 -7 -3 -10 2 -9 4 2 9 -1 10 -5 1
-4 10 -15 18 -24 9 -9 14 -24 12 -35 -3 -10 -2 -16 3 -13 9 5 55 -83 53 -102
0 -7 3 -13 8 -13 13 0 41 -59 33 -72 -4 -6 -3 -8 3 -5 9 6 27 -21 32 -48 1 -5
8 -17 15 -25 6 -8 21 -33 31 -55 11 -22 23 -41 28 -43 4 -2 7 -9 7 -15 0 -7 9
-23 20 -37 11 -14 20 -31 20 -38 0 -7 8 -22 18 -32 10 -11 27 -36 38 -57 30
-56 48 -87 54 -93 13 -13 50 -70 50 -77 0 -4 9 -19 20 -33 11 -14 20 -33 20
-43 0 -10 4 -16 10 -12 5 3 17 -9 26 -27 9 -18 20 -35 23 -38 10 -9 71 -98 71
-105 0 -3 -4 -4 -9 0 -5 3 -12 1 -16 -4 -3 -6 3 -8 14 -6 13 2 31 -14 65 -61
26 -36 44 -70 40 -76 -4 -6 -3 -8 3 -5 6 4 30 -19 54 -51 23 -31 46 -59 51
-60 4 -2 8 -8 8 -14 0 -5 7 -16 15 -25 8 -8 12 -19 9 -25 -4 -6 -2 -8 4 -4 6
3 21 -8 33 -26 13 -18 29 -39 36 -46 7 -8 10 -18 7 -24 -4 -6 -2 -8 3 -5 14 9
37 -19 28 -33 -4 -6 -3 -10 2 -9 18 3 36 -1 30 -7 -4 -4 3 -15 15 -25 11 -11
19 -19 16 -19 -3 0 16 -22 41 -48 25 -27 66 -72 91 -101 25 -29 69 -77 98
-107 28 -31 52 -60 52 -66 0 -6 3 -9 6 -5 10 10 36 -22 28 -34 -4 -7 -3 -10 2
-6 14 8 47 -20 38 -34 -4 -7 -3 -10 4 -5 6 3 15 -2 21 -11 6 -10 11 -14 11
-10 0 4 15 -9 33 -29 17 -21 31 -41 30 -45 -2 -5 4 -6 12 -3 9 4 15 0 15 -10
0 -9 4 -16 9 -16 5 0 37 -27 72 -60 35 -33 69 -60 74 -60 6 0 3 -5 -5 -10 -12
-8 -11 -10 8 -10 24 0 28 -10 10 -28 -9 -9 -6 -10 12 -7 16 3 34 -5 57 -25 18
-17 30 -30 26 -30 -4 0 12 -12 35 -27 23 -15 42 -31 42 -36 0 -4 -5 -5 -12 -1
-7 4 -8 3 -4 -4 4 -6 12 -9 19 -7 13 5 77 -50 77 -66 0 -6 3 -8 8 -5 4 2 31
-14 59 -37 28 -23 66 -53 83 -66 18 -14 45 -37 61 -52 16 -15 29 -25 29 -23 0
3 16 -7 35 -22 19 -14 32 -31 28 -37 -3 -6 -1 -7 5 -3 14 8 114 -62 106 -75
-3 -5 1 -6 9 -3 8 3 26 -6 41 -21 14 -14 29 -26 33 -28 5 -1 8 -11 7 -22 -1
-17 0 -18 9 -4 9 14 16 13 56 -15 25 -17 48 -34 51 -37 3 -4 15 -10 28 -13 14
-5 21 -14 20 -24 -2 -11 3 -16 14 -14 21 3 70 -27 62 -39 -3 -5 3 -6 12 -2 12
4 15 3 10 -5 -5 -8 -2 -10 8 -6 9 3 16 2 16 -2 0 -5 13 -15 28 -22 16 -6 39
-22 52 -35 14 -12 27 -21 30 -21 16 4 50 -17 44 -28 -4 -7 -3 -8 4 -4 13 8
104 -42 98 -53 -3 -4 0 -13 6 -21 8 -12 9 -12 4 3 -3 11 0 17 9 17 14 0 20
-13 15 -35 -1 -5 4 -5 11 2 12 12 42 7 35 -6 -3 -4 5 -8 17 -8 12 -1 26 -8 32
-16 5 -8 12 -14 15 -14 19 0 49 -16 45 -24 -3 -5 1 -6 9 -3 9 3 16 1 16 -5 0
-6 3 -10 8 -9 14 5 122 -54 117 -63 -4 -5 0 -7 7 -4 17 7 130 -50 120 -60 -4
-5 -2 -5 5 -1 13 7 84 -24 78 -35 -3 -3 1 -7 8 -6 34 1 48 -4 41 -15 -5 -7 -2
-9 8 -5 9 3 37 -5 62 -18 26 -13 48 -24 49 -24 3 0 58 -20 77 -28 16 -7 25
-10 38 -12 4 -1 1 -5 -5 -9 -8 -5 1 -8 22 -9 20 -1 41 -6 48 -11 7 -5 31 -16
55 -23 23 -6 42 -17 42 -22 0 -6 3 -7 6 -4 4 3 16 1 28 -5 11 -6 32 -13 45
-14 13 -2 29 -8 34 -13 6 -6 19 -11 30 -11 11 0 15 -4 11 -12 -4 -6 -3 -8 3
-5 17 10 115 -22 107 -35 -5 -7 -2 -8 5 -3 14 8 103 -14 97 -24 -2 -3 6 -7 17
-7 29 -2 64 -11 79 -20 7 -5 19 -9 28 -9 38 -3 108 -30 102 -39 -3 -6 1 -5 10
2 13 10 18 10 29 0 8 -7 23 -13 34 -13 11 0 20 -5 20 -12 0 -6 4 -15 9 -20 5
-4 6 -3 2 4 -11 20 15 26 30 7 9 -11 13 -13 9 -6 -7 13 11 17 19 4 2 -4 19 -9
37 -10 18 -2 36 -6 39 -10 3 -4 14 -7 25 -6 11 0 34 -4 50 -9 17 -4 41 -11 55
-14 14 -2 30 -6 35 -7 6 -2 28 -6 50 -11 22 -4 43 -13 47 -19 5 -7 8 -7 8 3 0
11 3 11 15 1 8 -7 15 -9 15 -4 0 5 5 2 10 -6 5 -8 10 -10 10 -4 0 7 22 6 70
-4 38 -9 67 -19 64 -24 -3 -4 -1 -8 5 -8 5 0 12 6 14 13 4 9 8 9 14 0 5 -6 15
-11 23 -11 48 3 90 -3 85 -12 -3 -6 -1 -10 4 -10 6 0 11 5 11 11 0 6 5 7 13 2
14 -9 18 -9 70 -11 28 -2 36 -5 31 -14 -6 -10 -5 -10 8 -1 8 7 18 10 21 7 5
-6 73 -14 135 -17 12 -1 22 -3 22 -7 0 -3 19 -5 43 -6 73 -1 185 -12 196 -18
6 -4 11 -2 11 4 0 7 6 8 18 2 9 -5 27 -8 40 -6 13 2 21 0 18 -4 -5 -9 30 -10
38 -1 10 10 86 -3 79 -14 -4 -6 -1 -7 8 -1 18 11 69 13 69 2 0 -4 5 -8 11 -8
5 0 7 5 3 11 -5 8 -1 8 14 0 14 -8 23 -8 27 -1 5 8 12 7 23 -2 12 -10 16 -10
19 0 3 6 9 9 15 6 13 -8 385 -7 398 1 5 3 10 1 10 -5 0 -6 5 -8 10 -5 18 11
90 13 83 2 -4 -6 -1 -7 8 -2 22 14 109 16 109 3 0 -7 6 -3 14 7 13 17 14 17
23 1 9 -16 11 -16 16 -2 4 11 19 15 50 14 24 0 53 3 65 6 15 5 22 3 22 -6 0
-10 2 -10 9 1 6 9 20 12 40 9 17 -2 31 -2 31 2 0 4 15 8 33 9 17 1 47 3 65 4
17 2 32 -2 32 -7 0 -6 4 -6 8 1 4 7 30 15 57 18 28 2 61 7 75 10 14 2 46 7 72
10 26 2 59 7 73 11 13 3 39 7 58 8 18 1 37 5 43 8 5 3 23 5 41 4 17 0 29 3 26
8 -3 5 0 7 8 4 8 -3 33 1 57 8 33 10 41 10 35 1 -4 -8 -1 -7 10 1 9 8 21 11
26 8 5 -4 13 -1 16 5 4 5 13 8 20 5 7 -2 16 -2 19 2 4 3 12 7 19 9 46 10 85
16 100 17 9 0 17 3 17 6 0 3 14 7 31 8 17 1 40 7 50 13 14 7 19 6 19 -3 0 -10
2 -10 9 1 5 8 23 14 40 15 17 0 31 4 31 7 0 12 49 16 60 5 8 -8 11 -7 8 2 -2
10 27 22 92 41 52 15 101 30 108 34 7 5 12 3 12 -5 0 -10 2 -10 8 -1 4 7 17
14 27 16 11 2 28 7 37 11 9 4 22 9 30 10 7 2 21 6 30 11 10 4 29 8 42 9 13 0
22 4 19 9 -7 12 12 8 26 -6 10 -10 11 -8 5 7 -5 13 -4 17 4 12 6 -3 14 -2 17
4 5 8 11 7 21 -1 12 -10 15 -10 12 1 -2 8 2 15 7 15 6 1 18 5 27 9 9 4 22 4
29 0 7 -4 9 -3 5 4 -8 13 89 47 105 36 7 -4 9 -3 6 3 -7 12 47 35 57 26 3 -4
6 -1 6 7 0 10 3 10 16 0 12 -11 15 -11 12 1 -2 8 4 13 15 13 9 -1 17 2 17 8 0
5 5 6 10 3 6 -3 10 -1 10 5 0 7 7 10 15 6 8 -3 15 -1 15 3 0 12 60 32 73 24 5
-3 7 -1 4 4 -10 16 18 24 32 10 9 -9 10 -8 5 7 -6 16 -4 18 15 13 14 -3 24 0
27 8 5 12 31 25 59 30 6 0 48 20 94 43 46 23 89 39 95 35 6 -3 8 -3 4 2 -8 9
82 56 94 49 4 -3 8 -2 8 3 0 4 13 15 29 24 22 13 32 14 41 5 8 -8 10 -7 5 6
-4 10 -3 18 3 18 5 0 41 18 80 39 39 21 73 36 76 33 3 -3 6 -1 6 5 0 9 27 21
47 21 3 0 10 7 15 16 5 9 13 14 19 11 5 -4 9 -1 9 5 0 7 7 10 15 7 8 -4 17 -1
21 5 4 7 3 8 -4 4 -7 -4 -12 -5 -12 -2 0 2 21 15 48 28 26 13 53 29 60 36 7 6
19 12 27 12 7 0 15 7 19 15 3 8 15 15 26 15 11 0 20 3 20 8 0 10 71 48 83 44
5 -1 6 2 2 8 -4 6 7 15 24 21 17 6 31 15 31 21 0 5 10 6 23 3 15 -4 18 -3 8 3
-9 7 -10 12 -2 16 6 4 11 4 11 0 0 -4 6 0 13 11 8 10 19 15 25 11 6 -3 14 0
19 8 11 20 160 125 167 118 3 -3 6 -1 6 5 0 5 25 27 57 49 31 21 61 43 67 49
37 35 100 73 115 68 12 -4 13 -3 3 5 -10 7 -8 13 12 25 14 9 33 25 43 35 10
10 40 35 66 56 40 32 51 36 59 25 7 -10 8 -8 3 9 -3 12 -3 22 2 22 4 0 21 11
36 25 15 14 27 23 27 20 0 -3 26 19 57 50 31 30 59 53 61 50 3 -3 10 5 17 18
6 12 19 21 28 21 9 -1 15 2 12 6 -7 11 30 41 39 33 4 -5 6 -1 4 7 -2 8 3 14
10 12 6 -1 11 4 10 10 -2 7 5 12 14 12 10 -1 15 2 12 7 -11 18 7 30 24 17 9
-8 13 -8 9 -1 -12 19 4 45 25 40 15 -4 17 -2 8 8 -8 9 -5 16 12 28 28 18 129
117 120 117 -3 0 4 8 17 18 13 9 35 29 48 44 14 15 29 25 34 23 4 -3 11 0 15
6 4 8 3 9 -4 5 -25 -15 -10 8 39 60 29 29 56 51 62 47 6 -4 7 -1 2 6 -9 15 53
83 68 74 6 -3 7 -1 3 5 -9 14 24 53 38 45 6 -3 8 -3 4 2 -11 11 12 36 25 28 6
-3 7 -1 3 6 -4 6 5 25 22 44 17 17 41 44 54 59 20 22 27 25 38 15 11 -9 11 -8
0 7 -12 16 -12 20 3 31 9 7 17 15 17 18 0 14 34 46 43 40 6 -3 7 -1 4 4 -4 6
2 21 13 34 25 31 32 41 47 65 6 10 16 18 22 17 6 -2 8 4 5 12 -4 8 -2 15 4 15
5 0 27 25 47 55 21 30 42 52 46 49 5 -3 6 1 3 9 -3 8 3 21 13 28 10 8 19 20
21 28 1 7 9 19 17 27 8 8 24 32 36 54 13 22 28 40 36 40 7 0 10 6 7 14 -3 8 0
17 7 22 8 5 10 3 4 -6 -5 -9 -4 -11 4 -6 6 4 8 12 5 18 -4 6 -3 13 2 17 5 3
14 15 21 26 6 11 16 19 21 18 5 -1 9 5 8 15 0 9 4 16 11 15 7 -2 10 3 7 11 -5
14 37 84 59 98 7 4 8 8 4 8 -5 0 0 12 10 28 10 15 23 36 30 47 6 11 16 19 23
17 6 -1 8 2 5 8 -4 6 1 21 12 32 12 14 13 19 3 13 -12 -7 -12 -5 1 11 18 22
80 130 129 227 19 37 38 67 43 67 4 0 5 5 2 10 -3 6 -1 10 4 10 6 0 11 9 11
21 0 13 4 18 12 13 7 -5 8 -3 4 5 -5 7 0 19 10 27 11 9 13 13 7 9 -9 -4 -11
-1 -7 9 3 9 10 13 15 10 5 -3 6 2 3 10 -3 9 -1 16 5 16 6 0 11 5 11 12 0 18
64 148 73 148 4 0 5 4 2 10 -8 13 14 52 25 45 6 -3 7 1 4 9 -3 8 8 43 24 78
16 35 40 89 52 120 13 31 27 55 31 53 4 -3 5 5 1 17 -4 17 -2 20 13 14 15 -5
16 -4 5 8 -10 13 -8 21 11 47 13 18 18 30 12 26 -6 -4 2 25 17 64 15 39 34 75
41 80 8 5 9 9 3 9 -8 0 -5 19 8 55 12 31 25 52 31 48 5 -3 7 -1 4 4 -9 15 3
74 14 67 5 -3 7 1 4 8 -3 7 9 54 25 103 17 50 33 99 35 110 15 68 30 115 34
115 3 0 7 12 8 26 0 15 7 30 15 35 9 6 9 9 1 9 -9 0 -8 10 3 41 8 23 16 53 19
67 2 14 9 29 16 32 7 5 8 10 1 14 -6 3 -8 15 -5 26 5 17 8 18 22 8 14 -11 14
-11 3 3 -7 9 -10 27 -8 40 3 13 5 30 5 37 1 7 4 11 9 9 4 -3 7 9 8 26 1 18 5
48 9 67 4 19 8 43 9 53 0 9 3 17 6 17 3 0 6 8 7 18 0 9 7 56 16 103 9 48 19
108 22 135 4 27 9 58 13 69 6 20 8 42 11 98 1 20 5 26 14 21 8 -5 8 -2 -2 9
-7 9 -9 17 -4 17 5 0 8 11 8 24 -1 14 2 53 6 88 12 92 22 199 22 231 1 15 3
27 6 27 3 0 6 26 7 58 1 61 12 314 14 322 3 10 -1 409 -5 510 -7 160 -26 411
-40 520 -2 19 -7 58 -10 85 -4 28 -8 61 -10 75 -10 68 -17 118 -22 145 -3 17
-6 46 -7 66 -2 19 -5 39 -8 45 -3 5 -9 29 -12 54 -4 25 -10 62 -15 83 -5 20
-7 37 -5 37 3 0 1 8 -5 18 -5 9 -12 37 -15 62 -3 25 -10 60 -15 78 -5 17 -8
32 -5 32 3 0 0 8 -5 19 -6 10 -13 33 -16 52 -3 19 -8 42 -11 51 -3 9 -7 25 -9
35 -4 17 -33 135 -39 158 -2 6 -5 17 -8 25 -3 8 -11 33 -17 55 -29 107 -124
400 -141 440 -35 79 -70 187 -64 196 4 7 3 9 -4 5 -13 -8 -36 59 -26 75 4 7 3
9 -3 6 -6 -4 -16 8 -23 26 -8 17 -37 87 -67 155 -30 67 -51 128 -47 134 4 6 3
8 -3 5 -11 -7 -79 128 -77 151 1 7 0 11 -3 8 -9 -9 -84 144 -77 156 4 6 3 8
-3 5 -13 -8 -26 20 -16 35 3 6 2 8 -4 5 -5 -3 -19 11 -30 31 -77 141 -102 190
-98 196 3 3 2 4 -2 1 -7 -5 -72 92 -73 108 0 4 -5 13 -10 20 -6 7 -25 35 -42
62 -67 107 -224 341 -240 359 -10 11 -18 23 -18 26 0 4 -9 18 -21 31 -12 13
-35 44 -52 69 -30 43 -37 52 -84 108 -13 15 -23 30 -23 34 0 4 -6 13 -13 20
-25 25 -127 147 -127 152 0 3 -10 16 -22 29 -13 13 -50 54 -83 92 -33 38 -71
79 -83 91 -13 13 -21 28 -17 34 3 6 3 9 -2 8 -4 -2 -103 92 -219 207 -116 116
-241 237 -279 270 -37 33 -83 75 -102 93 -19 17 -37 32 -40 32 -3 0 -19 14
-35 30 -15 17 -32 30 -37 30 -5 0 -11 3 -13 8 -5 12 -129 112 -139 112 -6 0
-7 5 -4 10 3 6 0 10 -8 10 -7 0 -22 8 -33 18 -10 9 -48 39 -84 65 -36 27 -76
57 -90 67 -141 105 -481 330 -500 330 -5 0 -10 4 -10 8 0 4 -19 18 -42 30 -24
13 -74 41 -113 63 -38 22 -104 59 -145 81 -41 23 -78 45 -81 50 -3 5 -9 9 -13
8 -16 -4 -65 23 -59 33 3 5 1 7 -4 4 -9 -6 -150 57 -163 72 -3 3 -10 7 -15 8
-6 1 -49 19 -95 41 -70 32 -266 116 -355 152 -11 4 -49 19 -85 34 -36 14 -69
26 -73 26 -5 0 -23 6 -40 14 -29 12 -182 64 -352 117 -83 26 -267 78 -296 83
-13 3 -24 5 -24 6 0 2 -19 7 -58 15 -15 3 -67 15 -115 26 -48 12 -100 23 -117
26 -16 2 -37 6 -45 9 -18 7 -20 7 -200 38 -138 23 -240 38 -267 39 -7 0 -13 3
-13 6 0 3 -17 6 -38 7 -20 0 -64 4 -97 7 -149 17 -172 20 -210 22 -22 1 -40 3
-40 4 0 2 -72 6 -286 15 -48 2 -91 6 -97 10 -5 3 -11 4 -13 2z"/>
<path d="M353 7935 c0 -8 4 -12 9 -9 5 3 6 10 3 15 -9 13 -12 11 -12 -6z"/>
<path d="M380 6610 c-9 -6 -10 -10 -3 -10 6 0 15 5 18 10 8 12 4 12 -15 0z"/>
<path d="M639 5363 c-13 -16 -12 -17 4 -4 16 13 21 21 13 21 -2 0 -10 -8 -17
-17z"/>
<path d="M1210 3976 c0 -2 7 -7 16 -10 8 -3 12 -2 9 4 -6 10 -25 14 -25 6z"/>
<path d="M1693 3225 c0 -8 4 -12 9 -9 5 3 6 10 3 15 -9 13 -12 11 -12 -6z"/>
<path d="M13390 3096 c0 -2 7 -7 16 -10 8 -3 12 -2 9 4 -6 10 -25 14 -25 6z"/>
<path d="M1930 2916 c0 -2 7 -7 16 -10 8 -3 12 -2 9 4 -6 10 -25 14 -25 6z"/>
<path d="M13155 2800 c-4 -6 -11 -7 -17 -4 -7 4 -8 2 -4 -5 6 -9 11 -9 22 0
14 11 18 19 10 19 -3 0 -8 -5 -11 -10z"/>
<path d="M13053 2715 c0 -8 4 -12 9 -9 5 3 6 10 3 15 -9 13 -12 11 -12 -6z"/>
<path d="M13015 2679 c-4 -6 -5 -12 -2 -15 2 -3 7 2 10 11 7 17 1 20 -8 4z"/>
<path d="M2137 2665 c-4 -8 -3 -16 1 -19 4 -3 9 4 9 15 2 23 -3 25 -10 4z"/>
<path d="M2175 2630 c-3 -5 -1 -10 4 -10 6 0 11 5 11 10 0 6 -2 10 -4 10 -3 0
-8 -4 -11 -10z"/>
<path d="M12910 2549 c0 -5 5 -7 10 -4 6 3 10 8 10 11 0 2 -4 4 -10 4 -5 0
-10 -5 -10 -11z"/>
<path d="M2270 2510 c0 -5 5 -10 11 -10 5 0 7 5 4 10 -3 6 -8 10 -11 10 -2 0
-4 -4 -4 -10z"/>
<path d="M12710 2329 c0 -5 5 -7 10 -4 6 3 10 8 10 11 0 2 -4 4 -10 4 -5 0
-10 -5 -10 -11z"/>
<path d="M2451 2297 c-13 -21 -12 -21 5 -5 10 10 16 20 13 22 -3 3 -11 -5 -18
-17z"/>
<path d="M2495 2269 c-3 -4 2 -6 10 -5 21 3 28 13 10 13 -9 0 -18 -4 -20 -8z"/>
<path d="M12625 2250 c-3 -6 1 -7 9 -4 18 7 21 14 7 14 -6 0 -13 -4 -16 -10z"/>
<path d="M2650 2150 c0 -5 5 -10 11 -10 5 0 7 5 4 10 -3 6 -8 10 -11 10 -2 0
-4 -4 -4 -10z"/>
<path d="M12505 2130 c-3 -6 1 -7 9 -4 18 7 21 14 7 14 -6 0 -13 -4 -16 -10z"/>
<path d="M2675 2110 c3 -5 8 -10 11 -10 2 0 4 5 4 10 0 6 -5 10 -11 10 -5 0
-7 -4 -4 -10z"/>
<path d="M2635 2090 c-3 -5 -1 -10 4 -10 6 0 11 5 11 10 0 6 -2 10 -4 10 -3 0
-8 -4 -11 -10z"/>
<path d="M2590 2056 c0 -2 7 -7 16 -10 8 -3 12 -2 9 4 -6 10 -25 14 -25 6z"/>
<path d="M2775 2041 c-3 -5 -2 -12 3 -15 5 -3 9 1 9 9 0 17 -3 19 -12 6z"/>
<path d="M12414 2028 c-4 -7 -4 -10 1 -6 4 4 15 2 24 -5 14 -11 14 -10 2 6
-16 20 -18 21 -27 5z"/>
<path d="M12330 1990 c0 -5 5 -10 11 -10 5 0 7 5 4 10 -3 6 -8 10 -11 10 -2 0
-4 -4 -4 -10z"/>
<path d="M2874 1912 c4 -3 14 -7 22 -8 9 -1 13 0 10 4 -4 3 -14 7 -22 8 -9 1
-13 0 -10 -4z"/>
<path d="M12166 1828 c3 -5 10 -6 15 -3 13 9 11 12 -6 12 -8 0 -12 -4 -9 -9z"/>
<path d="M3005 1809 c-3 -4 2 -6 10 -5 21 3 28 13 10 13 -9 0 -18 -4 -20 -8z"/>
<path d="M3094 1766 c1 -8 5 -18 8 -22 4 -3 5 1 4 10 -1 8 -5 18 -8 22 -4 3
-5 -1 -4 -10z"/>
<path d="M12033 1725 c0 -8 4 -12 9 -9 5 3 6 10 3 15 -9 13 -12 11 -12 -6z"/>
<path d="M11955 1691 c-3 -5 -2 -12 3 -15 5 -3 9 1 9 9 0 17 -3 19 -12 6z"/>
<path d="M11895 1630 c3 -5 8 -10 11 -10 2 0 4 5 4 10 0 6 -5 10 -11 10 -5 0
-7 -4 -4 -10z"/>
<path d="M11775 1561 c-3 -5 -2 -12 3 -15 5 -3 9 1 9 9 0 17 -3 19 -12 6z"/>
<path d="M3370 1549 c0 -5 5 -7 10 -4 6 3 10 8 10 11 0 2 -4 4 -10 4 -5 0 -10
-5 -10 -11z"/>
<path d="M3455 1481 c-3 -5 -2 -12 3 -15 5 -3 9 1 9 9 0 17 -3 19 -12 6z"/>
<path d="M3615 1390 c-3 -6 1 -7 9 -4 18 7 21 14 7 14 -6 0 -13 -4 -16 -10z"/>
<path d="M11573 1379 c-2 -23 3 -25 10 -4 4 8 3 16 -1 19 -4 3 -9 -4 -9 -15z"/>
<path d="M11495 1350 c3 -5 8 -10 11 -10 2 0 4 5 4 10 0 6 -5 10 -11 10 -5 0
-7 -4 -4 -10z"/>
<path d="M3576 1328 c3 -5 10 -6 15 -3 13 9 11 12 -6 12 -8 0 -12 -4 -9 -9z"/>
<path d="M3675 1330 c3 -5 8 -10 11 -10 2 0 4 5 4 10 0 6 -5 10 -11 10 -5 0
-7 -4 -4 -10z"/>
<path d="M11456 1308 c3 -5 10 -6 15 -3 13 9 11 12 -6 12 -8 0 -12 -4 -9 -9z"/>
<path d="M3675 1271 c-3 -5 -2 -12 3 -15 5 -3 9 1 9 9 0 17 -3 19 -12 6z"/>
<path d="M11395 1270 c3 -5 8 -10 11 -10 2 0 4 5 4 10 0 6 -5 10 -11 10 -5 0
-7 -4 -4 -10z"/>
<path d="M3815 1250 c-3 -5 -1 -10 4 -10 6 0 11 5 11 10 0 6 -2 10 -4 10 -3 0
-8 -4 -11 -10z"/>
<path d="M11326 1248 c3 -5 10 -6 15 -3 13 9 11 12 -6 12 -8 0 -12 -4 -9 -9z"/>
<path d="M3835 1190 c3 -5 8 -10 11 -10 2 0 4 5 4 10 0 6 -5 10 -11 10 -5 0
-7 -4 -4 -10z"/>
<path d="M3976 1157 c3 -10 9 -15 12 -12 3 3 0 11 -7 18 -10 9 -11 8 -5 -6z"/>
<path d="M11193 1135 c0 -8 4 -12 9 -9 5 3 6 10 3 15 -9 13 -12 11 -12 -6z"/>
<path d="M11136 1108 c3 -4 11 -5 19 -1 21 7 19 12 -4 10 -11 0 -18 -5 -15 -9z"/>
<path d="M4130 1069 c0 -5 5 -7 10 -4 6 3 10 8 10 11 0 2 -4 4 -10 4 -5 0 -10
-5 -10 -11z"/>
<path d="M11145 1050 c-3 -6 1 -7 9 -4 18 7 21 14 7 14 -6 0 -13 -4 -16 -10z"/>
<path d="M4170 1035 c0 -7 30 -13 34 -7 3 4 -4 9 -15 9 -10 1 -19 0 -19 -2z"/>
<path d="M10930 1030 c0 -5 5 -10 11 -10 5 0 7 5 4 10 -3 6 -8 10 -11 10 -2 0
-4 -4 -4 -10z"/>
<path d="M4216 1012 c-3 -5 1 -9 9 -9 8 0 12 4 9 9 -3 4 -7 8 -9 8 -2 0 -6 -4
-9 -8z"/>
<path d="M4295 990 c-3 -5 -1 -10 4 -10 6 0 11 5 11 10 0 6 -2 10 -4 10 -3 0
-8 -4 -11 -10z"/>
<path d="M4330 969 c0 -5 5 -7 10 -4 6 3 10 8 10 11 0 2 -4 4 -10 4 -5 0 -10
-5 -10 -11z"/>
<path d="M10750 929 c0 -5 5 -7 10 -4 6 3 10 8 10 11 0 2 -4 4 -10 4 -5 0 -10
-5 -10 -11z"/>
<path d="M10655 870 c3 -5 8 -10 11 -10 2 0 4 5 4 10 0 6 -5 10 -11 10 -5 0
-7 -4 -4 -10z"/>
<path d="M4550 830 c0 -5 5 -10 11 -10 5 0 7 5 4 10 -3 6 -8 10 -11 10 -2 0
-4 -4 -4 -10z"/>
<path d="M4466 808 c3 -5 10 -6 15 -3 13 9 11 12 -6 12 -8 0 -12 -4 -9 -9z"/>
<path d="M4590 815 c0 -5 5 -17 10 -25 5 -8 10 -10 10 -5 0 6 -5 17 -10 25 -5
8 -10 11 -10 5z"/>
<path d="M10470 816 c0 -2 7 -7 16 -10 8 -3 12 -2 9 4 -6 10 -25 14 -25 6z"/>
<path d="M10513 805 c0 -8 4 -12 9 -9 5 3 6 10 3 15 -9 13 -12 11 -12 -6z"/>
<path d="M4695 790 c-3 -5 -1 -10 4 -10 6 0 11 5 11 10 0 6 -2 10 -4 10 -3 0
-8 -4 -11 -10z"/>
<path d="M4746 772 c-3 -5 1 -9 9 -9 8 0 12 4 9 9 -3 4 -7 8 -9 8 -2 0 -6 -4
-9 -8z"/>
<path d="M4675 731 c-3 -5 -2 -12 3 -15 5 -3 9 1 9 9 0 17 -3 19 -12 6z"/>
<path d="M4853 715 c0 -8 4 -12 9 -9 5 3 6 10 3 15 -9 13 -12 11 -12 -6z"/>
<path d="M4915 701 c-3 -5 -2 -12 3 -15 5 -3 9 1 9 9 0 17 -3 19 -12 6z"/>
<path d="M10229 693 c-13 -16 -12 -17 4 -4 16 13 21 21 13 21 -2 0 -10 -8 -17
-17z"/>
<path d="M4970 669 c0 -5 5 -7 10 -4 6 3 10 8 10 11 0 2 -4 4 -10 4 -5 0 -10
-5 -10 -11z"/>
<path d="M10170 670 c0 -5 5 -10 11 -10 5 0 7 5 4 10 -3 6 -8 10 -11 10 -2 0
-4 -4 -4 -10z"/>
<path d="M5010 650 c0 -5 5 -10 11 -10 5 0 7 5 4 10 -3 6 -8 10 -11 10 -2 0
-4 -4 -4 -10z"/>
<path d="M10136 628 c3 -5 10 -6 15 -3 13 9 11 12 -6 12 -8 0 -12 -4 -9 -9z"/>
<path d="M5110 626 c0 -2 8 -10 18 -17 15 -13 16 -12 3 4 -13 16 -21 21 -21
13z"/>
<path d="M10066 608 c3 -5 10 -6 15 -3 13 9 11 12 -6 12 -8 0 -12 -4 -9 -9z"/>
<path d="M5173 595 c0 -8 4 -12 9 -9 5 3 6 10 3 15 -9 13 -12 11 -12 -6z"/>
<path d="M5215 590 c-3 -5 -1 -10 4 -10 6 0 11 5 11 10 0 6 -2 10 -4 10 -3 0
-8 -4 -11 -10z"/>
<path d="M10013 585 c0 -8 4 -12 9 -9 5 3 6 10 3 15 -9 13 -12 11 -12 -6z"/>
<path d="M5270 549 c0 -5 5 -7 10 -4 6 3 10 8 10 11 0 2 -4 4 -10 4 -5 0 -10
-5 -10 -11z"/>
<path d="M9815 550 c3 -5 8 -10 11 -10 2 0 4 5 4 10 0 6 -5 10 -11 10 -5 0 -7
-4 -4 -10z"/>
<path d="M5375 509 c-3 -4 2 -6 10 -5 21 3 28 13 10 13 -9 0 -18 -4 -20 -8z"/>
<path d="M9714 512 c4 -3 14 -7 22 -8 9 -1 13 0 10 4 -4 3 -14 7 -22 8 -9 1
-13 0 -10 -4z"/>
<path d="M5526 472 c-3 -5 1 -9 9 -9 8 0 12 4 9 9 -3 4 -7 8 -9 8 -2 0 -6 -4
-9 -8z"/>
<path d="M5476 457 c3 -10 9 -15 12 -12 3 3 0 11 -7 18 -10 9 -11 8 -5 -6z"/>
<path d="M5274 446 c1 -8 5 -18 8 -22 4 -3 5 1 4 10 -1 8 -5 18 -8 22 -4 3 -5
-1 -4 -10z"/>
<path d="M5634 432 c4 -3 14 -7 22 -8 9 -1 13 0 10 4 -4 3 -14 7 -22 8 -9 1
-13 0 -10 -4z"/>
<path d="M9475 429 c-3 -4 2 -6 10 -5 21 3 28 13 10 13 -9 0 -18 -4 -20 -8z"/>
<path d="M5720 410 c-9 -6 -10 -10 -3 -10 6 0 15 5 18 10 8 12 4 12 -15 0z"/>
<path d="M9750 411 c0 -6 4 -12 8 -15 5 -3 9 1 9 9 0 8 -4 15 -9 15 -4 0 -8
-4 -8 -9z"/>
<path d="M5890 389 c0 -5 5 -7 10 -4 6 3 10 8 10 11 0 2 -4 4 -10 4 -5 0 -10
-5 -10 -11z"/>
<path d="M9215 390 c3 -5 8 -10 11 -10 2 0 4 5 4 10 0 6 -5 10 -11 10 -5 0 -7
-4 -4 -10z"/>
<path d="M5955 349 c-3 -4 2 -6 10 -5 21 3 28 13 10 13 -9 0 -18 -4 -20 -8z"/>
<path d="M9050 349 c0 -5 5 -7 10 -4 6 3 10 8 10 11 0 2 -4 4 -10 4 -5 0 -10
-5 -10 -11z"/>
<path d="M9133 345 c0 -8 4 -12 9 -9 5 3 6 10 3 15 -9 13 -12 11 -12 -6z"/>
<path d="M6040 330 c-9 -6 -10 -10 -3 -10 6 0 15 5 18 10 8 12 4 12 -15 0z"/>
<path d="M9245 330 c-3 -6 1 -7 9 -4 18 7 21 14 7 14 -6 0 -13 -4 -16 -10z"/>
<path d="M6174 312 c4 -3 14 -7 22 -8 9 -1 13 0 10 4 -4 3 -14 7 -22 8 -9 1
-13 0 -10 -4z"/>
<path d="M8976 308 c3 -4 11 -5 19 -1 21 7 19 12 -4 10 -11 0 -18 -5 -15 -9z"/>
<path d="M6413 281 c0 -11 5 -18 9 -15 4 3 5 11 1 19 -7 21 -12 19 -10 -4z"/>
<path d="M8796 283 c-6 -14 -5 -15 5 -6 7 7 10 15 7 18 -3 3 -9 -2 -12 -12z"/>
<path d="M8650 269 c0 -5 5 -7 10 -4 6 3 10 8 10 11 0 2 -4 4 -10 4 -5 0 -10
-5 -10 -11z"/>
<path d="M6355 261 c-3 -5 -2 -12 3 -15 5 -3 9 1 9 9 0 17 -3 19 -12 6z"/>
<path d="M6474 256 c1 -8 5 -18 8 -22 4 -3 5 1 4 10 -1 8 -5 18 -8 22 -4 3 -5
-1 -4 -10z"/>
<path d="M8845 250 c-3 -6 1 -7 9 -4 18 7 21 14 7 14 -6 0 -13 -4 -16 -10z"/>
<path d="M6566 232 c-3 -5 1 -9 9 -9 8 0 12 4 9 9 -3 4 -7 8 -9 8 -2 0 -6 -4
-9 -8z"/>
<path d="M6676 232 c-3 -5 1 -9 9 -9 8 0 12 4 9 9 -3 4 -7 8 -9 8 -2 0 -6 -4
-9 -8z"/>
<path d="M6734 232 c4 -3 14 -7 22 -8 9 -1 13 0 10 4 -4 3 -14 7 -22 8 -9 1
-13 0 -10 -4z"/>
<path d="M6890 230 c0 -5 5 -10 11 -10 5 0 7 5 4 10 -3 6 -8 10 -11 10 -2 0
-4 -4 -4 -10z"/>
<path d="M6930 229 c0 -5 5 -7 10 -4 6 3 10 8 10 11 0 2 -4 4 -10 4 -5 0 -10
-5 -10 -11z"/>
<path d="M8095 230 c3 -5 8 -10 11 -10 2 0 4 5 4 10 0 6 -5 10 -11 10 -5 0 -7
-4 -4 -10z"/>
<path d="M8255 230 c3 -5 8 -10 11 -10 2 0 4 5 4 10 0 6 -5 10 -11 10 -5 0 -7
-4 -4 -10z"/>
<path d="M8533 225 c0 -8 4 -12 9 -9 5 3 6 10 3 15 -9 13 -12 11 -12 -6z"/>
<path d="M7175 219 c-4 -6 -5 -12 -2 -15 2 -3 7 2 10 11 7 17 1 20 -8 4z"/>
<path d="M7066 192 c-3 -5 1 -9 9 -9 8 0 12 4 9 9 -3 4 -7 8 -9 8 -2 0 -6 -4
-9 -8z"/>
<path d="M7250 189 c0 -5 5 -7 10 -4 6 3 10 8 10 11 0 2 -4 4 -10 4 -5 0 -10
-5 -10 -11z"/>
<path d="M7415 190 c3 -5 8 -10 11 -10 2 0 4 5 4 10 0 6 -5 10 -11 10 -5 0 -7
-4 -4 -10z"/>
<path d="M7536 188 c3 -4 11 -5 19 -1 21 7 19 12 -4 10 -11 0 -18 -5 -15 -9z"/>
<path d="M7775 190 c-3 -5 -1 -10 4 -10 6 0 11 5 11 10 0 6 -2 10 -4 10 -3 0
-8 -4 -11 -10z"/>
<path d="M8016 192 c-2 -4 -1 -14 4 -22 7 -11 9 -9 7 8 -1 24 -3 26 -11 14z"/>
<path d="M8173 185 c0 -8 4 -12 9 -9 5 3 6 10 3 15 -9 13 -12 11 -12 -6z"/>
<path d="M8710 171 c0 -6 4 -13 10 -16 6 -3 7 1 4 9 -7 18 -14 21 -14 7z"/>
<path d="M7675 150 c-3 -5 -1 -10 4 -10 6 0 11 5 11 10 0 6 -2 10 -4 10 -3 0
-8 -4 -11 -10z"/>
</g>
</svg>
